<?xml version="1.0" encoding="UTF-8" standalone="no"?>
<!DOCTYPE svg PUBLIC "-//W3C//DTD SVG 20010904//EN"
              "http://www.w3.org/TR/2001/REC-SVG-20010904/DTD/svg10.dtd">

<svg xmlns="http://www.w3.org/2000/svg"
     width="1.08333in" height="1.23611in"
     viewBox="0 0 78 89">
  <path id="Selezione"
        fill="white" stroke="white" stroke-width="0"
        d="M 1.00,1.00
           C 1.00,1.00 12.00,1.00 12.00,1.00
             12.00,1.00 12.00,12.00 12.00,12.00
             12.00,12.00 1.00,12.00 1.00,12.00
             1.00,12.00 1.00,1.00 1.00,1.00 Z
           M 23.00,1.00
           C 23.00,1.00 34.00,1.00 34.00,1.00
             34.00,1.00 34.00,12.00 34.00,12.00
             34.00,12.00 23.00,12.00 23.00,12.00
             23.00,12.00 23.00,1.00 23.00,1.00 Z
           M 44.00,1.00
           C 44.00,1.00 55.00,1.00 55.00,1.00
             55.00,1.00 55.00,12.00 55.00,12.00
             55.00,12.00 44.00,12.00 44.00,12.00
             44.00,12.00 44.00,1.00 44.00,1.00 Z
           M 66.00,1.00
           C 66.00,1.00 77.00,1.00 77.00,1.00
             77.00,1.00 77.00,12.00 77.00,12.00
             77.00,12.00 66.00,12.00 66.00,12.00
             66.00,12.00 66.00,1.00 66.00,1.00 Z
           M 1.00,23.00
           C 1.00,23.00 77.00,23.00 77.00,23.00
             77.00,23.00 77.00,66.00 77.00,66.00
             77.00,66.00 1.00,66.00 1.00,66.00
             1.00,66.00 1.00,23.00 1.00,23.00 Z
           M 1.00,77.00
           C 1.00,77.00 12.00,77.00 12.00,77.00
             12.00,77.00 12.00,88.00 12.00,88.00
             12.00,88.00 1.00,88.00 1.00,88.00
             1.00,88.00 1.00,77.00 1.00,77.00 Z
           M 23.00,77.00
           C 23.00,77.00 34.00,77.00 34.00,77.00
             34.00,77.00 34.00,88.00 34.00,88.00
             34.00,88.00 23.00,88.00 23.00,88.00
             23.00,88.00 23.00,77.00 23.00,77.00 Z
           M 44.00,77.00
           C 44.00,77.00 55.00,77.00 55.00,77.00
             55.00,77.00 55.00,88.00 55.00,88.00
             55.00,88.00 44.00,88.00 44.00,88.00
             44.00,88.00 44.00,77.00 44.00,77.00 Z
           M 66.00,77.00
           C 66.00,77.00 77.00,77.00 77.00,77.00
             77.00,77.00 77.00,88.00 77.00,88.00
             77.00,88.00 66.00,88.00 66.00,88.00
             66.00,88.00 66.00,77.00 66.00,77.00 Z" />
</svg>
