<?xml version="1.0" encoding="UTF-8" standalone="no"?>
<!DOCTYPE svg PUBLIC "-//W3C//DTD SVG 20010904//EN"
              "http://www.w3.org/TR/2001/REC-SVG-20010904/DTD/svg10.dtd">

<svg xmlns="http://www.w3.org/2000/svg"
     width="67.7249mm" height="67.7249mm"
     viewBox="0 0 128 128">
  <path id="Selezione"
        fill="white" stroke="white" stroke-width="0"
        d="M 50.00,1.65
           C 65.20,-1.50 68.98,7.89 69.00,21.00
             69.00,21.00 69.00,81.00 69.00,81.00
             69.03,95.18 75.64,91.47 75.98,104.00
             76.15,109.79 75.76,114.11 72.20,118.96
             60.36,135.09 31.31,126.35 33.19,104.00
             34.20,91.89 40.97,93.89 41.00,80.00
             41.00,80.00 41.00,17.00 41.00,17.00
             41.10,9.27 42.46,4.85 50.00,1.65 Z
           M 54.00,6.54
           C 47.89,8.73 47.09,11.94 47.00,18.00
             47.00,18.00 47.00,83.00 47.00,83.00
             46.97,97.73 37.44,95.40 39.21,108.00
             40.39,116.37 48.49,122.96 57.00,121.66
             64.60,120.50 70.85,113.77 70.92,106.00
             71.02,94.03 63.03,97.56 63.00,83.00
             63.00,83.00 63.00,33.00 63.00,33.00
             63.00,33.00 63.00,22.00 63.00,22.00
             63.00,14.75 63.84,6.80 54.00,6.54 Z
           M 72.00,14.00
           C 72.00,14.00 97.00,14.00 97.00,14.00
             97.00,14.00 97.00,20.00 97.00,20.00
             97.00,20.00 72.00,20.00 72.00,20.00
             72.00,20.00 72.00,14.00 72.00,14.00 Z
           M 72.00,29.00
           C 72.00,29.00 85.00,29.00 85.00,29.00
             85.00,29.00 85.00,35.00 85.00,35.00
             85.00,35.00 72.00,35.00 72.00,35.00
             72.00,35.00 72.00,29.00 72.00,29.00 Z
           M 72.00,44.00
           C 72.00,44.00 97.00,44.00 97.00,44.00
             97.00,44.00 97.00,50.00 97.00,50.00
             97.00,50.00 72.00,50.00 72.00,50.00
             72.00,50.00 72.00,44.00 72.00,44.00 Z
           M 72.00,59.00
           C 72.00,59.00 85.00,59.00 85.00,59.00
             85.00,59.00 85.00,65.00 85.00,65.00
             85.00,65.00 72.00,65.00 72.00,65.00
             72.00,65.00 72.00,59.00 72.00,59.00 Z
           M 53.22,70.79
           C 60.99,69.96 58.99,79.72 59.00,85.00
             59.00,86.96 58.87,90.04 59.59,91.82
             60.74,94.64 63.57,95.81 65.43,99.09
             68.77,104.99 67.23,113.33 60.98,116.55
             51.90,121.23 41.32,114.31 42.56,104.00
             43.33,97.53 47.27,96.01 48.98,92.83
             50.21,90.55 49.99,87.54 50.00,85.00
             50.01,79.98 48.69,73.92 53.22,70.79 Z
           M 72.00,74.00
           C 72.00,74.00 97.00,74.00 97.00,74.00
             97.00,74.00 97.00,79.00 97.00,79.00
             97.00,79.00 72.00,79.00 72.00,79.00
             72.00,79.00 72.00,74.00 72.00,74.00 Z" />
</svg>
