<svg xmlns="http://www.w3.org/2000/svg"
     viewBox="0 0 64 64">
  <path id="Selezione"
        fill="#e6e6e6" stroke="#e6e6e6" stroke-width="0"
        d="M 6,4
           H 46
           C 47.5,4 48,4.5 48,6
           V 38
           C 48,39.5 47.5,40 46,40
           H 6
           C 4.5,40 4,39.5 4,38
           V 6
           C 3,4.5 4.5,4 6,4 Z
           M 52,33.74
           C 52,32 52.30,32 54,32
           H 58
           C 59.5,32 60,32.38 60,34
           V 53
           C 60,60.42 60.46,60 52,60
           H 21
           C 20.29,60 20,59.72 20,59
           V 48.26
           C 20,43.30 21,44 24.77,44
           H 47.67
           C 52,44 52,44 52,40.68
           V 33.74 Z" />
</svg>
