<?xml version="1.0" encoding="UTF-8" standalone="no"?>
<!DOCTYPE svg PUBLIC "-//W3C//DTD SVG 20010904//EN"
              "http://www.w3.org/TR/2001/REC-SVG-20010904/DTD/svg10.dtd">

<svg xmlns="http://www.w3.org/2000/svg"
     width="18.0638mm" height="18.0638mm"
     viewBox="0 0 64 64">
  <path id="Selezione"
        fill="#e6e6e6" stroke="e6e6e6" stroke-width="0"
        d="M 6,4
           H 58
           C 59.5,4 60,4.5 60,6.00
           V 58
           C 60,59.5 59.5,60 58,60
           H 6
           C 4.5,60 4,59.5 4,58
           V 6
           C 4,4.5 4.5,4 6,4 Z
           M 32,8
           L 24,16
           H 40
           L 32,8 Z
           M 16,24
           L 8,32
           L 16,40
           V 24 Z
           M 56,32
           L 48,24
           V 40
           L 56,32 Z
           M 32,56
           L 40,48
           H 24
           L 32,56 Z" />
</svg>
